<?xml version="1.0" encoding="UTF-8" standalone="no"?>
<!-- Generator: Adobe Illustrator 23.0.1, SVG Export Plug-In . SVG Version: 6.00 Build 0)  -->

<svg
   version="1.1"
   id="Calque_1"
   x="0px"
   y="0px"
   viewBox="0 0 128 127.99998"
   xml:space="preserve"
   sodipodi:docname="labsud_favicon.svg"
   width="128"
   height="128"
   inkscape:version="1.2.2 (b0a8486541, 2022-12-01)"
   inkscape:export-filename="labsud_favicon.png"
   inkscape:export-xdpi="64"
   inkscape:export-ydpi="64"
   xmlns:inkscape="http://www.inkscape.org/namespaces/inkscape"
   xmlns:sodipodi="http://sodipodi.sourceforge.net/DTD/sodipodi-0.dtd"
   xmlns="http://www.w3.org/2000/svg"
   xmlns:svg="http://www.w3.org/2000/svg"
   xmlns:rdf="http://www.w3.org/1999/02/22-rdf-syntax-ns#"
   xmlns:cc="http://creativecommons.org/ns#"
   xmlns:dc="http://purl.org/dc/elements/1.1/"><defs
   id="defs38" /><sodipodi:namedview
   id="namedview36"
   pagecolor="#ffffff"
   bordercolor="#000000"
   borderopacity="0.25"
   inkscape:showpageshadow="2"
   inkscape:pageopacity="0.0"
   inkscape:pagecheckerboard="0"
   inkscape:deskcolor="#d1d1d1"
   showgrid="false"
   inkscape:zoom="1.240079"
   inkscape:cx="-87.494428"
   inkscape:cy="90.316829"
   inkscape:window-width="1920"
   inkscape:window-height="1009"
   inkscape:window-x="-8"
   inkscape:window-y="-8"
   inkscape:window-maximized="1"
   inkscape:current-layer="Calque_1" />
<style
   type="text/css"
   id="style2">
	.st0{fill:#FFA200;}
</style>
<title
   id="title4">LogoLabSudVectoriel</title>
<rect
   style="fill:#000000;fill-opacity:1;stroke:none;stroke-width:0.684364"
   id="rect767"
   width="128"
   height="128"
   x="0"
   y="0"
   ry="0" /><path
   id="path3915"
   class="st0"
   d="m 39.020206,67.869427 c -0.02978,4.059755 -0.05957,6.967416 -0.02978,10.451125 H 22.677957 L 37.50206,103.00824 c 0,0 1.607433,3.04482 1.994405,4.36149 0.327445,1.28926 0.535811,2.60593 0.654882,3.95003 0.119071,1.17953 -0.0893,2.52363 -0.506044,4.0049 -0.476274,1.67327 -1.279987,3.23683 -2.32185,4.66323 -0.982319,1.26182 -3.423232,2.7705 -3.423232,2.7705 H 10.979426 v -9.87507 H 28.24445 c 0,0 -14.824102,-24.166505 -15.836189,-26.278674 -1.012086,-2.11217 -1.428835,-2.880232 -1.786039,-4.142048 -0.386973,-1.316677 -0.565579,-2.688215 -0.565579,-4.032323 0.02979,-1.481262 0.357213,-2.907662 0.922783,-4.279201 0.625115,-1.618416 1.666969,-3.044816 3.036269,-4.196908 1.399058,-1.179523 4.137649,-2.139601 4.137649,-2.139601 6.87624,-0.02743 14.198997,0.05486 20.866862,0.05486 z"
   style="stroke-width:0.285751" />
<path
   id="path3933"
   d="m 84.335829,8.1188641 0.02976,54.8615459 26.165431,-0.02743 c 1.04186,-0.411463 2.02418,-0.932647 2.91719,-1.536124 1.39907,-1.0698 2.67907,-2.249323 3.86976,-3.511139 1.10139,-1.179523 1.9944,-2.4962 2.64928,-3.895169 0.80372,-1.536124 1.66698,-3.89517 1.87534,-5.623309 0.20837,-1.810432 0.11907,-3.648293 -0.26791,-5.431294 -0.47628,-1.947584 -1.36929,-3.758015 -2.61952,-5.376431 -1.57765,-2.029878 -4.64369,-3.428847 -4.64369,-3.428847 0,0 3.03626,-2.139599 3.86975,-3.428845 0.80371,-1.234387 1.36929,-2.605925 1.69672,-4.032325 0.38699,-1.75557 0.53582,-3.53857 0.38699,-5.294139 -0.14885,-2.167031 -0.17861,-5.925046 -4.6437,-9.655631 -2.85766,-2.2218924 -3.54231,-2.5784926 -6.25112,-3.5934312 z M 97.463198,18.569988 h 7.382282 c 0,0 1.45861,1.536124 1.72651,2.413907 0.5358,0.905217 0.83349,2.743078 0.89302,3.703156 -0.0298,1.261815 -0.41675,2.496201 -1.10139,3.566 -0.44651,0.603477 -1.42883,1.810431 -1.42883,1.810431 l -7.50136,-0.02743 z m -0.02978,21.670311 7.739502,0.02743 c 0,0 1.78602,1.673278 2.26231,2.743077 0.50604,1.152092 0.53581,2.633354 0.50604,3.703155 -0.0298,0.877785 -0.23814,1.728138 -0.56557,2.551062 -0.26792,0.685769 -0.65489,1.371538 -1.10139,1.975015 -0.47628,0.576047 -0.98232,1.097231 -1.51814,1.590986 l -7.292984,0.02743 z"
   style="fill:#ffffff;stroke-width:0.285751" />
<path
   id="path3905"
   d="m 54.406168,63.035272 1.607433,-8.50354 11.698541,-0.02743 1.637202,8.503541 12.680861,0.02743 L 71.343751,8.1188641 52.798735,8.0640025 41.546702,63.007841 Z m 7.382287,-39.74719 4.137652,21.642879 -8.21577,-0.05486 z"
   style="fill:#ffffff;stroke-width:0.285751" />
<path
   id="path3900"
   d="M 10.483203,8.0914333 H 23.55104 V 52.831025 H 40.905365 V 63.007841 H 10.483203 Z"
   style="fill:#ffffff;stroke-width:0.285751" />
<path
   id="path3947"
   class="st0"
   d="m 41.818333,82.270582 h 12.621332 v 24.166508 c 0,0 -0.0893,1.31668 0.803711,3.75802 0.893016,2.44133 1.905111,3.34655 1.905111,3.34655 h 6.459501 V 82.270582 h 12.561787 v 40.350658 h -9.882732 l -1.190693,-2.8528 c 0,0 -1.488362,1.50869 -2.857662,2.16704 -1.369291,0.65834 -3.959051,0.68576 -3.959051,0.68576 l -9.793429,0.0549 c 0,0 -3.125563,-3.67574 -4.048355,-5.5136 -0.922783,-1.83786 -1.339523,-3.2094 -1.815799,-5.18442 -0.476284,-1.97502 -0.714417,-7.07714 -0.714417,-7.07714 z"
   style="stroke-width:0.285751" />
<path
   id="path3951"
   class="st0"
   d="M 114.95654,122.67611 V 67.677412 l -12.65109,0.08229 0.0298,16.211588 h -0.53581 c 0,0 0.0596,-0.384031 -1.25022,-1.124662 -1.309763,-0.740631 -3.214869,-0.548615 -3.214869,-0.548615 l -8.751576,-0.02743 c 0,0 -2.20278,1.810433 -3.453,3.51114 -1.250228,1.700707 -3.453008,5.019831 -4.048354,7.296579 -0.476276,1.618415 -0.773953,3.264268 -0.952551,4.910104 0,0.630915 -0.119072,2.139604 -0.119072,3.511134 0,1.37154 -0.0893,3.26427 0.148839,5.26672 0.267901,2.27675 0.773944,4.49865 1.547898,6.6931 0.773945,2.08474 2.024173,3.92261 3.095795,5.45873 1.071622,1.53612 3.572071,3.70315 3.572071,3.70315 l 8.900418,0.0274 c 0,0 2.440914,-0.0274 3.720911,-0.4389 1.28,-0.41146 1.48836,-0.7132 2.02417,-1.12466 0.41674,-0.38404 0.74419,-0.82293 0.98232,-1.31668 l 1.3693,2.90767 z m -12.59157,-31.27108 -0.0595,22.16406 -6.757172,-0.0274 c 0,0 -1.190693,-2.44135 -1.637201,-3.64829 -0.476275,-1.20696 -0.803712,-2.49622 -0.922783,-3.78546 -0.208374,-1.92014 -0.238142,-3.86773 -0.05957,-5.78789 0.148839,-1.673273 0.446507,-3.346558 0.922783,-4.964966 0.446508,-1.316685 1.666969,-3.950031 1.666969,-3.950031 z"
   style="stroke-width:0.285751" />

<metadata
   id="metadata267"><rdf:RDF><cc:Work
       rdf:about=""><dc:title>LogoLabSudVectoriel</dc:title></cc:Work></rdf:RDF></metadata></svg>
