<?xml version="1.0" encoding="UTF-8" standalone="no"?>
<!-- Generator: Adobe Illustrator 23.0.1, SVG Export Plug-In . SVG Version: 6.00 Build 0)  -->

<svg
   version="1.1"
   id="Calque_1"
   x="0px"
   y="0px"
   viewBox="0 0 128.36539 139.29933"
   xml:space="preserve"
   sodipodi:docname="labsud_favicon.svg"
   width="128.36539"
   height="139.29935"
   inkscape:version="1.2.2 (b0a8486541, 2022-12-01)"
   xmlns:inkscape="http://www.inkscape.org/namespaces/inkscape"
   xmlns:sodipodi="http://sodipodi.sourceforge.net/DTD/sodipodi-0.dtd"
   xmlns="http://www.w3.org/2000/svg"
   xmlns:svg="http://www.w3.org/2000/svg"
   xmlns:rdf="http://www.w3.org/1999/02/22-rdf-syntax-ns#"
   xmlns:cc="http://creativecommons.org/ns#"
   xmlns:dc="http://purl.org/dc/elements/1.1/"><defs
   id="defs38" /><sodipodi:namedview
   id="namedview36"
   pagecolor="#ffffff"
   bordercolor="#000000"
   borderopacity="0.25"
   inkscape:showpageshadow="2"
   inkscape:pageopacity="0.0"
   inkscape:pagecheckerboard="0"
   inkscape:deskcolor="#d1d1d1"
   showgrid="false"
   inkscape:zoom="1.7537365"
   inkscape:cx="210.12279"
   inkscape:cy="191.02072"
   inkscape:window-width="1920"
   inkscape:window-height="1009"
   inkscape:window-x="-8"
   inkscape:window-y="-8"
   inkscape:window-maximized="1"
   inkscape:current-layer="Calque_1" />
<style
   type="text/css"
   id="style2">
	.st0{fill:#FFA200;}
</style>
<title
   id="title4">LogoLabSudVectoriel</title>
<path
   id="path3915"
   class="st0"
   d="m 34.255634,70.706176 c -0.0343,5.073358 -0.0686,8.706979 -0.0343,13.060469 h -18.78513 l 17.07116,30.851495 c 0,0 1.85109,3.80502 2.29672,5.45043 0.37708,1.61114 0.61703,3.25655 0.75415,4.93624 0.13712,1.47402 -0.10284,3.15371 -0.58275,5.0048 -0.54847,2.09105 -1.47401,4.04498 -2.6738,5.82751 -1.13122,1.57685 -3.94213,3.46222 -3.94213,3.46222 H 1.9643941 v -12.3406 H 21.846474 c 0,0 -17.0711599,-30.200185 -18.2366599,-32.839702 -1.1655,-2.639518 -1.64542,-3.599342 -2.05677,-5.176197 -0.44563,-1.645413 -0.65131,-3.359385 -0.65131,-5.039078 0.0343,-1.85109 0.41136,-3.633622 1.06266,-5.347594 0.71987,-2.022488 1.91965,-3.805019 3.49651,-5.244755 1.61113,-1.474017 4.7648399,-2.673797 4.7648399,-2.673797 7.91855,-0.03428 16.3513,0.06856 24.02989,0.06856 z"
   style="stroke-width:0.342794" />
<path
   id="path3933"
   d="m 85.047306,0.06855889 0.03428,68.55889211 30.131634,-0.03428 c 1.19978,-0.514192 2.331,-1.165502 3.35938,-1.919649 1.61114,-1.336899 3.08515,-2.810915 4.45633,-4.387769 1.26834,-1.474017 2.29672,-3.11943 3.05087,-4.867682 0.92555,-1.919649 1.91965,-4.867681 2.15961,-7.027286 0.23995,-2.262444 0.13712,-4.559167 -0.30852,-6.787331 -0.54847,-2.43384 -1.57685,-4.696284 -3.01659,-6.718771 -1.81681,-2.536679 -5.34759,-4.284931 -5.34759,-4.284931 0,0 3.4965,-2.673796 4.45633,-4.28493 0.92554,-1.542576 1.57685,-3.256548 1.95392,-5.039079 0.44564,-2.193885 0.61703,-4.422049 0.44564,-6.615933 -0.1714,-2.708075 -0.20568,-7.4043595 -5.3476,-12.0663642 -3.29082,-2.7766351 -4.07925,-3.2222679 -7.19868,-4.49060746 z M 100.16454,13.129028 h 8.5013 c 0,0 1.6797,1.919649 1.98821,3.016591 0.61703,1.131222 0.95983,3.427945 1.02839,4.627725 -0.0343,1.576855 -0.47992,3.11943 -1.26834,4.456328 -0.5142,0.754148 -1.64542,2.262444 -1.64542,2.262444 l -8.63842,-0.03428 z m -0.0343,27.080762 8.91266,0.03428 c 0,0 2.05676,2.091046 2.60524,3.427944 0.58275,1.439737 0.61703,3.290827 0.58275,4.627726 -0.0343,1.096942 -0.27424,2.159605 -0.65131,3.187988 -0.30852,0.856986 -0.75415,1.713972 -1.26834,2.46812 -0.54847,0.719869 -1.13122,1.371178 -1.74825,1.988208 l -8.39847,0.03428 z"
   style="stroke-width:0.342794" />
<path
   id="path3905"
   d="m 50.11655,68.69601 1.85109,-10.626628 13.471822,-0.03428 1.88537,10.626629 14.603044,0.03428 L 69.621555,0.06855889 48.26546,0 35.307829,68.661731 Z m 8.501303,-49.670917 4.764843,27.046483 -9.461127,-0.06856 z"
   style="stroke-width:0.342794" />
<path
   id="path3900"
   d="M 0,0.03427945 H 15.048677 V 55.944056 H 35.033594 V 68.661731 H 0 Z"
   style="stroke-width:0.342794" />
<path
   id="path3947"
   class="st0"
   d="m 37.477904,88.702885 h 14.53449 v 30.200185 c 0,0 -0.10284,1.64542 0.92554,4.69629 1.02838,3.05087 2.19389,4.18209 2.19389,4.18209 h 7.43864 V 88.702885 h 14.46592 v 50.425065 h -11.38077 l -1.37118,-3.56507 c 0,0 -1.71397,1.88537 -3.29083,2.70808 -1.57685,0.82271 -4.55917,0.85699 -4.55917,0.85699 l -11.27793,0.0686 c 0,0 -3.59934,-4.59345 -4.66201,-6.89017 -1.06266,-2.29673 -1.54257,-4.0107 -2.09104,-6.47882 -0.54848,-2.46812 -0.82271,-8.8441 -0.82271,-8.8441 z"
   style="stroke-width:0.342794" />
<path
   id="path3951"
   class="st0"
   d="M 121.7025,139.1965 V 70.46622 l -14.56876,0.102838 0.0343,20.259153 h -0.61703 c 0,0 0.0686,-0.479912 -1.43973,-1.405457 -1.5083,-0.925545 -3.70218,-0.685589 -3.70218,-0.685589 l -10.078156,-0.03428 c 0,0 -2.53668,2.262444 -3.97641,4.387769 -1.43974,2.125326 -3.97642,6.273139 -4.66201,9.118326 -0.54847,2.02249 -0.89127,4.07926 -1.09694,6.13602 0,0.78843 -0.13712,2.6738 -0.13712,4.38777 0,1.71397 -0.10284,4.07926 0.1714,6.58166 0.30851,2.84519 0.89126,5.62183 1.78253,8.36418 0.89126,2.60524 2.331,4.90196 3.56506,6.82161 1.23406,1.91965 4.11353,4.62773 4.11353,4.62773 l 10.249556,0.0343 c 0,0 2.81091,-0.0343 4.28493,-0.54848 1.47402,-0.51419 1.71397,-0.89126 2.331,-1.40545 0.47991,-0.47992 0.85699,-1.02839 1.13122,-1.64542 l 1.57686,3.63362 z m -14.50021,-39.07856 -0.0685,27.69779 -7.781436,-0.0343 c 0,0 -1.37118,-3.05087 -1.88537,-4.55917 -0.54847,-1.50829 -0.92554,-3.11943 -1.06266,-4.73056 -0.23996,-2.39956 -0.27424,-4.8334 -0.0686,-7.23296 0.1714,-2.09105 0.51419,-4.1821 1.06266,-6.20458 0.51419,-1.64542 1.91965,-4.93624 1.91965,-4.93624 z"
   style="stroke-width:0.342794" />

<metadata
   id="metadata267"><rdf:RDF><cc:Work
       rdf:about=""><dc:title>LogoLabSudVectoriel</dc:title></cc:Work></rdf:RDF></metadata></svg>
