<?xml version="1.0" encoding="UTF-8" standalone="no"?>
<!-- Generator: Adobe Illustrator 23.0.1, SVG Export Plug-In . SVG Version: 6.00 Build 0)  -->

<svg
   version="1.1"
   id="Calque_1"
   x="0px"
   y="0px"
   viewBox="0 0 250 100.09598"
   xml:space="preserve"
   sodipodi:docname="labsud_logo_full_reverse.svg"
   width="250"
   height="100.09599"
   inkscape:version="1.2.2 (b0a8486541, 2022-12-01)"
   xmlns:inkscape="http://www.inkscape.org/namespaces/inkscape"
   xmlns:sodipodi="http://sodipodi.sourceforge.net/DTD/sodipodi-0.dtd"
   xmlns="http://www.w3.org/2000/svg"
   xmlns:svg="http://www.w3.org/2000/svg"
   xmlns:rdf="http://www.w3.org/1999/02/22-rdf-syntax-ns#"
   xmlns:cc="http://creativecommons.org/ns#"
   xmlns:dc="http://purl.org/dc/elements/1.1/"><defs
   id="defs38" /><sodipodi:namedview
   id="namedview36"
   pagecolor="#ffffff"
   bordercolor="#000000"
   borderopacity="0.25"
   inkscape:showpageshadow="2"
   inkscape:pageopacity="0.0"
   inkscape:pagecheckerboard="0"
   inkscape:deskcolor="#d1d1d1"
   showgrid="false"
   inkscape:zoom="1.7537365"
   inkscape:cx="117.46348"
   inkscape:cy="191.30582"
   inkscape:window-width="1419"
   inkscape:window-height="1032"
   inkscape:window-x="343"
   inkscape:window-y="0"
   inkscape:window-maximized="0"
   inkscape:current-layer="Calque_1" />
<style
   type="text/css"
   id="style2">
	.st0{fill:#FFA200;}
</style>
<title
   id="title4">LogoLabSudVectoriel</title>
<path
   id="path3915"
   class="st0"
   d="m 162.55313,0.23995612 c -0.0343,5.07335798 -0.0686,8.70697928 -0.0343,13.06046888 H 143.7337 l 17.07116,30.851502 c 0,0 1.85109,3.805018 2.29672,5.450431 0.37708,1.611134 0.61703,3.256548 0.75415,4.936241 0.13712,1.474016 -0.10284,3.153709 -0.58275,5.004799 -0.54847,2.091046 -1.47401,4.044974 -2.6738,5.827506 -1.13122,1.576854 -3.94213,3.462224 -3.94213,3.462224 H 130.26189 V 56.492527 h 19.88208 c 0,0 -17.07116,-30.200192 -18.23666,-32.839709 -1.1655,-2.639518 -1.64542,-3.599342 -2.05677,-5.176197 -0.44563,-1.645413 -0.65131,-3.359385 -0.65131,-5.039078 0.0343,-1.85109 0.41136,-3.6336214 1.06266,-5.3475937 0.71987,-2.0224874 1.91965,-3.8050185 3.49651,-5.2447553 1.61113,-1.4740162 4.76484,-2.67379677 4.76484,-2.67379677 7.91855,-0.0342795 16.3513,0.0685589 24.02989,0.0685589 z"
   style="stroke-width:0.342794" />
<path
   id="path3933"
   d="m 85.047306,0.30851501 0.03428,68.55889199 30.131634,-0.03428 c 1.19978,-0.514192 2.331,-1.165502 3.35938,-1.919649 1.61114,-1.336899 3.08515,-2.810915 4.45633,-4.387769 1.26834,-1.474017 2.29672,-3.11943 3.05087,-4.867682 0.92555,-1.919649 1.91965,-4.867681 2.15961,-7.027286 0.23995,-2.262444 0.13712,-4.559167 -0.30852,-6.787331 -0.54847,-2.43384 -1.57685,-4.696284 -3.01659,-6.718771 -1.81681,-2.536679 -5.34759,-4.284931 -5.34759,-4.284931 0,0 3.4965,-2.673796 4.45633,-4.28493 0.92554,-1.542576 1.57685,-3.256548 1.95392,-5.039079 0.44564,-2.193885 0.61703,-4.422049 0.44564,-6.615933 C 126.2512,14.191691 126.21692,9.4954066 121.075,4.8334019 117.78418,2.0567668 116.99575,1.611134 113.87632,0.34279446 Z M 100.16454,13.368984 h 8.5013 c 0,0 1.6797,1.919649 1.98821,3.016591 0.61703,1.131222 0.95983,3.427945 1.02839,4.627725 -0.0343,1.576855 -0.47992,3.11943 -1.26834,4.456328 -0.5142,0.754148 -1.64542,2.262444 -1.64542,2.262444 l -8.63842,-0.03428 z m -0.0343,27.080762 8.91266,0.03428 c 0,0 2.05676,2.091046 2.60524,3.427944 0.58275,1.439737 0.61703,3.290827 0.58275,4.627726 -0.0343,1.096942 -0.27424,2.159605 -0.65131,3.187988 -0.30852,0.856986 -0.75415,1.713972 -1.26834,2.46812 -0.54847,0.719869 -1.13122,1.371178 -1.74825,1.988208 l -8.39847,0.03428 z"
   style="stroke-width:0.342794;fill:#ffffff" />
<path
   id="path3905"
   d="m 50.11655,68.935966 1.85109,-10.626628 13.471822,-0.03428 1.88537,10.626629 14.603044,0.03428 L 69.621555,0.30851501 48.26546,0.23995612 35.307829,68.901687 Z m 8.501303,-49.670917 4.764843,27.046483 -9.461127,-0.06856 z"
   style="stroke-width:0.342794;fill:#ffffff" />
<path
   id="path3900"
   d="M 0,0.27423557 H 15.048677 V 56.184012 H 35.033594 V 68.901687 H 0 Z"
   style="stroke-width:0.342794;fill:#ffffff" />
<path
   id="path3947"
   class="st0"
   d="m 165.7754,18.236665 h 14.53449 v 30.200192 c 0,0 -0.10284,1.645414 0.92554,4.696284 1.02838,3.050871 2.19389,4.182093 2.19389,4.182093 h 7.43864 V 18.236665 h 14.46592 V 68.66173 h -11.38077 l -1.37118,-3.565062 c 0,0 -1.71397,1.88537 -3.29083,2.708076 -1.57685,0.822707 -4.55917,0.856986 -4.55917,0.856986 L 173.454,68.73029 c 0,0 -3.59934,-4.593445 -4.66201,-6.890168 -1.06266,-2.296723 -1.54257,-4.010696 -2.09104,-6.478816 -0.54848,-2.46812 -0.82271,-8.844097 -0.82271,-8.844097 z"
   style="stroke-width:0.342794" />
<path
   id="path3951"
   class="st0"
   d="M 250,68.730289 V 0 l -14.56876,0.10283834 0.0343,20.25915266 h -0.61703 c 0,0 0.0686,-0.479912 -1.43973,-1.405457 -1.5083,-0.925545 -3.70218,-0.685589 -3.70218,-0.685589 l -10.07816,-0.03428 c 0,0 -2.53668,2.262444 -3.97641,4.387769 -1.43974,2.125326 -3.97642,6.273139 -4.66201,9.118333 -0.54847,2.022487 -0.89127,4.079254 -1.09694,6.136021 0,0.788427 -0.13712,2.673797 -0.13712,4.387769 0,1.713972 -0.10284,4.079254 0.1714,6.581654 0.30851,2.845194 0.89126,5.621829 1.78253,8.364184 0.89126,2.605238 2.331,4.901961 3.56506,6.82161 1.23406,1.919649 4.11353,4.627725 4.11353,4.627725 l 10.24956,0.03428 c 0,0 2.81091,-0.03428 4.28493,-0.548471 1.47402,-0.514192 1.71397,-0.891266 2.331,-1.405458 0.47991,-0.479912 0.85699,-1.028383 1.13122,-1.645413 l 1.57686,3.633621 z m -14.50021,-39.078568 -0.0685,27.697792 -7.78144,-0.03428 c 0,0 -1.37118,-3.050871 -1.88537,-4.559167 -0.54847,-1.508295 -0.92554,-3.119429 -1.06266,-4.730563 -0.23996,-2.399561 -0.27424,-4.833402 -0.0686,-7.232963 0.1714,-2.091046 0.51419,-4.182093 1.06266,-6.20458 0.51419,-1.645413 1.91965,-4.93624 1.91965,-4.93624 z"
   style="stroke-width:0.342794" />
<g
   id="flowRoot3954"
   transform="scale(0.34279446)">
	<path
   id="path3859"
   d="m 9,256.3 v 20 h 3 c 3.4,0 6.1,-0.9 7.9,-2.6 1.8,-1.7 2.7,-4.2 2.7,-7.5 0,-3.3 -0.9,-5.7 -2.7,-7.4 -1.8,-1.7 -4.5,-2.5 -7.9,-2.5 H 9 m -8.5,-6.4 h 9 c 3.7,-0.1 7.5,0.3 11.1,1.1 2.4,0.7 4.5,1.9 6.3,3.6 1.5,1.4 2.7,3.2 3.4,5.1 0.8,2.1 1.2,4.3 1.1,6.6 0,2.3 -0.3,4.5 -1.1,6.6 -0.8,1.9 -1.9,3.7 -3.4,5.1 -1.8,1.7 -4,3 -6.3,3.6 -3.6,0.8 -7.3,1.2 -11.1,1.1 H 0.6 L 0.5,249.9"
   style="fill:#ffffff" />
	<path
   id="path3861"
   d="m 38.9,249.9 h 8.5 v 32.8 h -8.5 v -32.8"
   style="fill:#ffffff" />
	<path
   id="path3863"
   d="m 52.2,249.9 h 9.2 l 7.5,11.7 7.5,-11.7 h 9.3 l -12.5,19 v 13.8 h -8.5 v -13.8 l -12.5,-19"
   style="fill:#ffffff" />
	<path
   id="path3865"
   d="m 120.4,260.9 9,9.9 c 0.8,-1 1.4,-2.2 1.8,-3.5 0.4,-1.4 0.7,-2.9 0.7,-4.3 h 6.8 c -0.2,2.4 -0.7,4.8 -1.6,7.1 -0.8,2 -1.9,3.9 -3.4,5.5 l 6.4,7.1 h -9.3 l -2.2,-2.4 c -1.5,1 -3.1,1.8 -4.8,2.3 -1.8,0.5 -3.6,0.8 -5.4,0.7 -3.4,0.2 -6.7,-0.9 -9.4,-3 -2.3,-1.9 -3.6,-4.8 -3.6,-7.9 0,-2 0.5,-4 1.6,-5.7 1.4,-1.9 3.1,-3.6 5.1,-4.8 -0.6,-0.7 -1,-1.5 -1.4,-2.3 -1.1,-2.9 -0.1,-6.3 2.3,-8.2 2.2,-1.5 4.8,-2.3 7.4,-2.1 1.4,0 2.8,0.1 4.2,0.3 1.5,0.2 3,0.5 4.5,0.9 v 6.1 c -1.2,-0.6 -2.6,-1.2 -3.9,-1.6 -1.2,-0.3 -2.4,-0.5 -3.6,-0.5 -0.9,-0.1 -1.8,0.2 -2.6,0.7 -0.6,0.4 -1,1.1 -0.9,1.8 0,0.6 0.2,1.2 0.5,1.7 0.7,0.9 1.2,1.6 1.8,2.2 m -4.4,5.5 c -0.9,0.6 -1.6,1.4 -2.2,2.4 -1.3,2.4 -0.8,5.3 1.1,7.2 1.2,1.2 2.8,1.8 4.5,1.8 0.9,0 1.9,-0.1 2.8,-0.4 0.9,-0.3 1.7,-0.8 2.4,-1.4 l -8.6,-9.6"
   style="fill:#ffffff" />
	<path
   id="path3867"
   d="m 163.9,249.9 h 22.8 v 6.4 h -14.4 v 6.1 h 13.5 v 6.4 h -13.5 v 13.9 h -8.5 v -32.8"
   style="fill:#ffffff" />
	<path
   id="path3869"
   d="m 210.4,276.7 h -13.2 l -2.1,6 h -8.5 l 12.1,-32.8 h 10.1 l 12.2,32.8 h -8.5 l -2.1,-6 m -11.1,-6.1 h 9 l -4.5,-13 -4.5,13"
   style="fill:#ffffff" />
	<path
   id="path3871"
   d="m 239.4,262.6 c 1.1,0.1 2.1,-0.2 3,-0.9 1.4,-1.4 1.4,-3.7 0,-5.2 -0.9,-0.7 -1.9,-1 -3,-0.9 h -4.7 v 6.9 h 4.7 m 0.3,14.4 c 1.4,0.1 2.7,-0.3 3.8,-1.1 0.9,-0.8 1.4,-2 1.3,-3.2 0.1,-1.2 -0.4,-2.4 -1.3,-3.2 -1.1,-0.8 -2.5,-1.2 -3.8,-1.1 h -5 v 8.6 h 5 m 7.9,-11.8 c 1.7,0.5 3.2,1.5 4.2,2.9 1,1.5 1.6,3.4 1.5,5.2 0,3.2 -1.1,5.5 -3.2,7.1 -2.1,1.6 -5.4,2.3 -9.8,2.3 h -14 V 249.8 H 239 c 4.6,0 7.9,0.7 9.9,2.1 2,1.4 3.1,3.6 3.1,6.6 0,1.4 -0.4,2.9 -1.1,4.1 -0.9,1.2 -2,2.1 -3.3,2.5"
   style="fill:#ffffff" />
	<path
   id="path3873"
   d="m 261.6,249.9 h 8.4 v 26.4 h 14.9 v 6.4 h -23.3 v -32.8"
   style="fill:#ffffff" />
	<path
   id="path3875"
   d="m 311.1,276.7 h -13.2 l -2.1,6 h -8.5 l 12.1,-32.8 h 10.1 l 12.1,32.8 h -8.5 l -2,-6 M 300,270.6 h 9 l -4.5,-13 -4.5,13"
   style="fill:#ffffff" />
	<path
   id="path3877"
   d="m 340.1,262.6 c 1.1,0.1 2.1,-0.2 3,-0.9 1.4,-1.4 1.4,-3.7 0,-5.2 -0.9,-0.6 -1.9,-1 -3,-0.9 h -4.7 v 6.9 h 4.7 m 0.3,14.4 c 1.4,0.1 2.7,-0.3 3.8,-1.1 0.9,-0.8 1.4,-2 1.3,-3.2 0.1,-1.2 -0.4,-2.4 -1.3,-3.2 -1.1,-0.8 -2.5,-1.2 -3.9,-1.1 h -5 v 8.6 h 5.1 m 7.9,-11.8 c 1.7,0.5 3.2,1.5 4.2,2.9 1,1.5 1.5,3.4 1.5,5.2 0,3.2 -1.1,5.5 -3.2,7.1 -2.1,1.6 -5.4,2.3 -9.8,2.3 h -14 v -32.8 h 12.7 c 4.6,0 7.9,0.7 9.9,2.1 2,1.4 3.1,3.6 3.1,6.6 0,1.4 -0.3,2.9 -1.1,4.1 -0.9,1.2 -2,2.1 -3.3,2.5"
   style="fill:#ffffff" />
	<path
   id="path3879"
   class="st0"
   d="m 389.6,271.6 c -1.3,-0.1 -2.6,0.2 -3.7,0.8 -0.8,0.5 -1.3,1.5 -1.2,2.5 0,0.9 0.3,1.8 1,2.4 0.8,0.6 1.8,0.9 2.8,0.8 1.4,0 2.8,-0.6 3.7,-1.6 1,-1.1 1.6,-2.5 1.5,-4 v -0.9 h -4.1 m 12,-3 v 14 h -7.9 V 279 c -0.9,1.4 -2.1,2.5 -3.6,3.3 -1.5,0.7 -3.1,1.1 -4.8,1 -2.3,0.1 -4.5,-0.7 -6.2,-2.2 -1.6,-1.5 -2.4,-3.6 -2.4,-5.8 0,-2.9 1,-5 3,-6.4 2,-1.3 5.1,-2 9.4,-2 h 4.6 v -0.6 c 0.1,-1.1 -0.5,-2.2 -1.5,-2.7 -1.4,-0.7 -3,-1 -4.6,-0.9 -1.6,0 -3.2,0.2 -4.7,0.5 -1.4,0.3 -2.8,0.8 -4,1.5 v -6 c 1.7,-0.4 3.4,-0.7 5.1,-0.9 1.7,-0.2 3.4,-0.3 5.1,-0.3 4.4,0 7.6,0.9 9.6,2.6 2,1.7 3,4.6 2.9,8.5 m -14.4,-22 6.2,8.3 h -4.3 l -8.1,-8.1 h 6.2" />
	<path
   id="path3881"
   class="st0"
   d="m 427,249.9 h 10.8 l 7.5,17.6 7.5,-17.6 h 10.8 v 32.8 h -8 v -24 l -7.6,17.7 h -5.4 L 435,258.7 v 24 h -8 v -32.8" />
	<path
   id="path3883"
   class="st0"
   d="m 484.2,263.1 c -1.6,-0.1 -3.1,0.6 -4,1.9 -1,1.6 -1.5,3.5 -1.4,5.4 -0.1,1.9 0.4,3.8 1.4,5.4 0.9,1.3 2.4,2 4,1.9 1.5,0.1 3,-0.6 3.9,-1.9 1,-1.6 1.5,-3.5 1.4,-5.4 0.1,-1.9 -0.4,-3.8 -1.4,-5.4 -0.9,-1.2 -2.4,-2 -3.9,-1.9 m 0,-5.6 c 4.2,0 7.5,1.1 9.9,3.4 2.4,2.3 3.6,5.4 3.6,9.5 0,4 -1.2,7.2 -3.6,9.5 -2.4,2.3 -5.7,3.4 -9.9,3.4 -4.2,0 -7.6,-1.1 -10,-3.4 -2.4,-2.3 -3.6,-5.4 -3.6,-9.5 0,-4 1.2,-7.2 3.6,-9.5 2.4,-2.3 5.7,-3.4 10,-3.4" />
	<path
   id="path3885"
   class="st0"
   d="m 529.1,267.7 v 15 h -7.9 v -11.5 c 0,-1.5 0,-2.9 -0.2,-4.4 0,-0.6 -0.2,-1.2 -0.5,-1.8 -0.3,-0.5 -0.7,-0.9 -1.3,-1.2 -0.6,-0.3 -1.2,-0.5 -1.8,-0.4 -1.5,-0.1 -3,0.7 -3.9,1.9 -1,1.6 -1.5,3.4 -1.4,5.2 v 12.1 h -7.9 V 258 h 7.9 v 3.6 c 1,-1.3 2.3,-2.4 3.8,-3.2 1.4,-0.7 2.9,-1 4.4,-1 2.8,0 5,0.9 6.5,2.6 1.6,1.9 2.3,4.4 2.3,7.7" />
	<path
   id="path3887"
   class="st0"
   d="m 546.1,251.1 v 7 h 8.1 v 5.6 h -8.1 v 10.4 c -0.1,0.8 0.1,1.7 0.7,2.3 0.8,0.5 1.8,0.7 2.7,0.6 h 4 v 5.6 h -6.8 c -3.1,0 -5.3,-0.6 -6.6,-1.9 -1.3,-1.3 -1.9,-3.5 -1.9,-6.6 v -10.5 h -3.9 V 258 h 3.9 v -7 l 7.9,0.1" />
	<path
   id="path3889"
   class="st0"
   d="M 567.9,279.1 V 292 H 560 v -34 h 7.9 v 3.6 c 0.9,-1.3 2.2,-2.4 3.6,-3.2 1.4,-0.7 3,-1 4.5,-1 2.9,0 5.7,1.3 7.5,3.6 3.9,5.6 3.9,13 0,18.6 -1.8,2.3 -4.5,3.7 -7.5,3.6 -1.6,0 -3.1,-0.3 -4.5,-1 -1.5,-0.6 -2.7,-1.7 -3.6,-3.1 m 5.2,-15.9 c -1.5,-0.1 -3,0.6 -3.9,1.9 -1,1.6 -1.5,3.5 -1.3,5.3 -0.1,1.9 0.4,3.8 1.3,5.4 0.9,1.2 2.4,1.9 3.9,1.8 1.5,0.1 3,-0.6 3.8,-1.8 1.8,-3.4 1.8,-7.4 0,-10.7 -0.8,-1.3 -2.3,-2 -3.8,-1.9" />
	<path
   id="path3891"
   class="st0"
   d="m 617.8,270.3 v 2.2 h -18.4 c 0.1,1.6 0.8,3.1 2,4.1 1.4,1 3.1,1.5 4.8,1.4 1.7,0 3.4,-0.3 5.1,-0.7 1.9,-0.6 3.7,-1.3 5.4,-2.2 v 6.1 c -1.8,0.7 -3.7,1.2 -5.6,1.6 -1.8,0.4 -3.7,0.5 -5.6,0.5 -4.5,0 -7.9,-1.1 -10.4,-3.4 -2.5,-2.3 -3.7,-5.4 -3.7,-9.5 0,-4 1.2,-7.2 3.6,-9.5 2.4,-2.3 5.7,-3.5 10,-3.4 3.4,-0.2 6.8,1.1 9.3,3.5 2.4,2.5 3.7,5.9 3.5,9.3 m -8.1,-2.6 c 0.1,-1.3 -0.4,-2.6 -1.3,-3.6 -0.9,-0.9 -2.1,-1.4 -3.4,-1.4 -1.4,-0.1 -2.7,0.4 -3.7,1.3 -1,1 -1.6,2.3 -1.8,3.7 h 10.2" />
	<path
   id="path3893"
   class="st0"
   d="m 624.8,248.5 h 7.9 v 34.2 h -7.9 v -34.2" />
	<path
   id="path3895"
   class="st0"
   d="m 641.2,248.5 h 7.9 v 34.2 h -7.9 v -34.2" />
	<path
   id="path3897"
   class="st0"
   d="m 657.7,258.1 h 7.9 v 24.6 h -7.9 v -24.6 m 0,-9.6 h 7.9 v 6.4 h -7.9 v -6.4" />
	<path
   id="path3899"
   class="st0"
   d="m 698.7,270.3 v 2.2 h -18.4 c 0.1,1.6 0.8,3.1 2,4.1 1.4,1 3.1,1.5 4.8,1.4 1.7,0 3.4,-0.3 5.1,-0.7 1.9,-0.5 3.7,-1.3 5.4,-2.2 v 6.1 c -1.8,0.7 -3.7,1.2 -5.6,1.6 -1.8,0.4 -3.7,0.5 -5.6,0.5 -4.4,0 -7.9,-1.1 -10.4,-3.4 -2.5,-2.3 -3.7,-5.4 -3.7,-9.5 0,-4 1.2,-7.2 3.6,-9.5 2.4,-2.3 5.8,-3.5 10,-3.4 6.6,-0.4 12.3,4.6 12.8,11.2 0.1,0.5 0.1,1.1 0,1.6 m -8.1,-2.6 c 0.1,-1.3 -0.4,-2.6 -1.3,-3.6 -0.9,-0.9 -2.1,-1.4 -3.4,-1.4 -1.4,-0.1 -2.7,0.4 -3.7,1.3 -1,1 -1.6,2.3 -1.8,3.7 h 10.2" />
	<path
   id="path3901"
   class="st0"
   d="m 724,264.8 c -0.7,-0.3 -1.4,-0.5 -2.1,-0.7 -0.7,-0.2 -1.3,-0.2 -2,-0.2 -1.8,-0.1 -3.5,0.6 -4.7,2 -1.2,1.6 -1.8,3.6 -1.6,5.6 v 11.3 h -7.9 v -24.6 h 7.9 v 4 c 0.8,-1.4 2,-2.6 3.5,-3.5 1.5,-0.8 3.1,-1.2 4.7,-1.1 0.3,0 0.5,0 0.8,0 0.3,0 0.8,0.1 1.3,0.1 l 0.1,7.1" />
</g>
<metadata
   id="metadata267"><rdf:RDF><cc:Work
       rdf:about=""><dc:title>LogoLabSudVectoriel</dc:title></cc:Work></rdf:RDF></metadata></svg>
