<?xml version="1.0" encoding="UTF-8" standalone="no"?>
<!-- Generator: Adobe Illustrator 16.0.0, SVG Export Plug-In . SVG Version: 6.00 Build 0)  -->

<svg
   version="1.1"
   id="Layer_1"
   x="0px"
   y="0px"
   width="435.721px"
   height="85.242px"
   viewBox="62.402 -18.766 435.721 85.242"
   enable-background="new 62.402 -18.766 435.721 85.242"
   xml:space="preserve"
   sodipodi:docname="BookStack_logo.svg"
   inkscape:version="1.3 (0e150ed6c4, 2023-07-21)"
   xmlns:inkscape="http://www.inkscape.org/namespaces/inkscape"
   xmlns:sodipodi="http://sodipodi.sourceforge.net/DTD/sodipodi-0.dtd"
   xmlns="http://www.w3.org/2000/svg"
   xmlns:svg="http://www.w3.org/2000/svg"><defs
   id="defs17" /><sodipodi:namedview
   id="namedview17"
   pagecolor="#ffffff"
   bordercolor="#000000"
   borderopacity="0.25"
   inkscape:showpageshadow="2"
   inkscape:pageopacity="0.0"
   inkscape:pagecheckerboard="0"
   inkscape:deskcolor="#d1d1d1"
   inkscape:zoom="1.5530607"
   inkscape:cx="164.51385"
   inkscape:cy="31.228656"
   inkscape:window-width="1680"
   inkscape:window-height="979"
   inkscape:window-x="1912"
   inkscape:window-y="18"
   inkscape:window-maximized="1"
   inkscape:current-layer="Layer_1" />&#10;&#10;&#10;&#10;&#10;&#10;<g
   stroke-linecap="round"
   id="g6"
   transform="matrix(0.37831515,0,0,0.37831515,-25.489786,-39.36221)"
   style="fill:#ffffff;fill-rule:evenodd;stroke:#0288d1;stroke-width:6;stroke-linejoin:round"><path
     d="m 343.79,238.6 128.88,-74.409 -92.058,-53.15 -128.88,74.409 z"
     id="path1-8"
     style="fill:#ffffff" /><path
     d="m 251.73,185.45 v 21.26 l 92.058,53.15 128.88,-74.409 v -21.26"
     id="path2-8"
     style="fill:#ffffff" /><path
     d="m 343.79,274.03 -92.058,-53.15 c 0,0 -7.5,-16.918 0,-28.346 l 92.058,53.15 128.88,-74.409 v 28.346 L 343.79,274.03"
     id="path3-1"
     style="fill:#ffffff" /><path
     d="M 343.79,188.99 472.67,114.58 380.61,61.434 251.73,135.84 Z"
     id="path4-4"
     style="fill:#ffffff" /><path
     d="m 343.79,188.99 128.88,-74.409 10e-6,28.346 -128.88,74.409 -92.058,-53.15 c 0,0 -6.0714,-17.632 0,-28.346 z"
     id="path5-4"
     style="fill:#ffffff" /><path
     d="m 343.79,245.69 -92.058,-53.15 c 0,0 -7.5,-16.918 0,-28.346 l 92.058,53.15 128.88,-74.409 -1e-5,28.346 -128.88,74.409"
     id="path6-5"
     style="fill:#ffffff" /></g><path
   d="m 126.62695,-11.428933 -20.89586,12.0644703 8.12621,0.6702228 1.1609,4.6918643 20.89623,-12.06447 z"
   id="path7-6"
   style="fill:#ffffff;fill-rule:evenodd;stroke:#0288d1;stroke-width:2.26989;stroke-linejoin:round" /><path
   style="-inkscape-font-specification:Calibri;fill:#0288d1;fill-opacity:1;stroke-width:0.721926"
   d="m 209.91823,35.42819 q 0,2.150269 -0.56399,3.983284 -0.52875,1.797765 -1.51577,3.243029 -0.98701,1.445262 -2.39702,2.538021 -1.37477,1.09276 -3.13728,1.833016 -1.72726,0.740257 -3.73653,1.12801 -1.97402,0.352503 -4.54729,0.352503 h -11.9146 q -0.81076,0 -1.55102,-0.528755 -0.705,-0.564005 -0.705,-1.938766 V 5.3596774 q 0,-1.3747619 0.705,-1.9035165 0.74026,-0.5640049 1.55102,-0.5640049 h 10.36359 q 4.08903,0 6.69755,0.7755067 2.60853,0.7755067 4.33579,2.2560197 1.76251,1.4805125 2.64378,3.6307812 0.88126,2.1502694 0.88126,4.8645434 0,1.621513 -0.38775,3.102027 -0.38777,1.480514 -1.16327,2.749524 -0.74026,1.23376 -1.90352,2.220768 -1.12801,0.987009 -2.60853,1.621515 1.86828,0.352502 3.48979,1.30426 1.62152,0.916509 2.82002,2.361772 1.23377,1.445262 1.93877,3.38403 0.705,1.938766 0.705,4.265287 z m -9.12982,-20.409928 q 0,-1.656765 -0.45825,-2.996276 -0.45827,-1.339512 -1.44526,-2.2560207 -0.98702,-0.9517584 -2.57328,-1.4452621 -1.58628,-0.4935048 -4.19478,-0.4935048 h -6.27456 V 22.597078 h 6.90906 q 2.36178,0 3.80703,-0.599255 1.44526,-0.634506 2.39702,-1.656765 0.95177,-1.057508 1.37477,-2.432271 0.45825,-1.410011 0.45825,-2.890525 z m 2.74953,20.76243 q 0,-2.044518 -0.66977,-3.595531 -0.63449,-1.551013 -1.90352,-2.608522 -1.23374,-1.05751 -3.13726,-1.586263 -1.86827,-0.564005 -4.72355,-0.564005 h -7.26156 v 16.074138 h 8.81257 q 2.07977,0 3.6308,-0.493504 1.55101,-0.493504 2.71426,-1.445263 1.19851,-0.987009 1.86826,-2.43227 0.66977,-1.445263 0.66977,-3.34878 z m 44.41537,-4.371038 q 0,3.877534 -1.02226,7.155813 -1.02225,3.243027 -3.06677,5.604798 -2.00927,2.36177 -5.07604,3.701282 -3.03153,1.304262 -7.05007,1.304262 -3.91278,0 -6.83856,-1.163261 -2.89052,-1.16326 -4.82928,-3.384029 -1.93877,-2.22077 -2.89054,-5.393297 -0.95175,-3.172527 -0.95175,-7.191062 0,-3.877535 0.98701,-7.120561 1.02226,-3.27828 3.03153,-5.640049 2.04451,-2.361771 5.07604,-3.666033 3.03153,-1.304261 7.08531,-1.304261 3.91278,0 6.80332,1.16326 2.92576,1.163259 4.86453,3.38403 1.93877,2.220768 2.89053,5.393295 0.987,3.17253 0.987,7.155813 z m -6.13354,0.387755 q 0,-2.573274 -0.49352,-4.864544 -0.45825,-2.291269 -1.551,-4.018534 -1.09277,-1.727264 -2.96104,-2.714274 -1.86826,-1.02226 -4.65303,-1.02226 -2.57327,0 -4.44155,0.916509 -1.833,0.916508 -3.03152,2.608522 -1.19851,1.656766 -1.79776,3.948035 -0.56401,2.29127 -0.56401,5.005543 0,2.608524 0.45826,4.899793 0.49351,2.29127 1.58627,4.018534 1.128,1.692017 2.99626,2.714275 1.86827,0.987008 4.65304,0.987008 2.53803,0 4.4063,-0.916508 1.86827,-0.916509 3.06678,-2.573272 1.1985,-1.656764 1.76251,-3.948035 0.56401,-2.291269 0.56401,-5.040792 z m 44.20388,-0.387755 q 0,3.877534 -1.02226,7.155813 -1.02225,3.243027 -3.06678,5.604798 -2.00926,2.36177 -5.07604,3.701282 -3.03153,1.304262 -7.05006,1.304262 -3.91279,0 -6.83856,-1.163261 -2.89053,-1.16326 -4.8293,-3.384029 -1.93876,-2.22077 -2.89052,-5.393297 -0.95175,-3.172527 -0.95175,-7.191062 0,-3.877535 0.987,-7.120561 1.02227,-3.27828 3.03152,-5.640049 2.04452,-2.361771 5.07606,-3.666033 3.03152,-1.304261 7.0853,-1.304261 3.91279,0 6.80332,1.16326 2.92577,1.163259 4.86453,3.38403 1.93877,2.220768 2.89052,5.393295 0.98702,3.17253 0.98702,7.155813 z m -6.13356,0.387755 q 0,-2.573274 -0.49351,-4.864544 -0.45824,-2.291269 -1.551,-4.018534 -1.09276,-1.727264 -2.96103,-2.714274 -1.86826,-1.02226 -4.65304,-1.02226 -2.57327,0 -4.44154,0.916509 -1.83303,0.916508 -3.03153,2.608522 -1.19851,1.656766 -1.79776,3.948035 -0.564,2.29127 -0.564,5.005543 0,2.608524 0.45824,4.899793 0.49352,2.29127 1.58627,4.018534 1.12801,1.692017 2.99628,2.714275 1.86826,0.987008 4.65304,0.987008 2.53802,0 4.40628,-0.916508 1.86828,-0.916509 3.06679,-2.573272 1.19851,-1.656764 1.76251,-3.948035 0.564,-2.291269 0.564,-5.040792 z m 40.74937,15.792136 q 0,0.282002 -0.14101,0.493503 -0.141,0.211502 -0.49351,0.352504 -0.31725,0.141002 -0.91651,0.211502 -0.59925,0.0705 -1.51576,0.0705 -0.95175,0 -1.58627,-0.0705 -0.59925,-0.03525 -1.02226,-0.141001 -0.42299,-0.141001 -0.705,-0.352503 -0.24675,-0.246752 -0.45825,-0.564005 L 300.40578,30.034892 v 17.589904 q 0,0.282002 -0.141,0.493504 -0.14101,0.17625 -0.45826,0.317252 -0.31725,0.141002 -0.88127,0.211502 -0.564,0.0705 -1.44525,0.0705 -0.84601,0 -1.41001,-0.0705 -0.56401,-0.0705 -0.91652,-0.211502 -0.31724,-0.141002 -0.45824,-0.317252 -0.10575,-0.211502 -0.10575,-0.493504 V 0.53038549 q 0,-0.2820025 0.10575,-0.4935043 0.141,-0.2115019 0.45824,-0.352503 0.35251,-0.1410015 0.91652,-0.2115019 0.564,-0.0705 1.41001,-0.0705 0.88125,0 1.44525,0.0705 0.56402,0.070501 0.88127,0.2115019 0.31725,0.1410011 0.45826,0.352503 0.141,0.2115018 0.141,0.4935043 V 29.224135 l 11.9851,-13.183615 q 0.282,-0.352502 0.59925,-0.564004 0.31726,-0.246753 0.74026,-0.387754 0.45825,-0.17625 1.0575,-0.211502 0.59926,-0.0705 1.44527,-0.0705 0.88126,0 1.48052,0.0705 0.59925,0.03525 0.95175,0.176253 0.38776,0.105747 0.52875,0.317252 0.17625,0.176252 0.17625,0.493504 0,0.423005 -0.24674,0.846007 -0.21151,0.423004 -0.74026,0.98701 l -11.49161,11.4916 12.90162,16.743894 q 0.45826,0.599255 0.6345,0.987008 0.21152,0.352504 0.21152,0.669757 z m 31.93676,-11.879353 q 0,3.207777 -1.19851,5.710549 -1.16325,2.502772 -3.27828,4.265287 -2.07977,1.727265 -4.93504,2.608522 -2.82002,0.881259 -6.0983,0.881259 -2.29127,0 -4.26529,-0.387753 -1.93876,-0.387755 -3.48978,-0.951759 -1.51577,-0.564005 -2.57326,-1.16326 -1.02226,-0.599255 -1.44527,-1.022259 -0.38776,-0.423004 -0.59926,-1.05751 -0.17625,-0.669755 -0.17625,-1.762515 0,-0.775506 0.0706,-1.269011 0.0706,-0.528754 0.21151,-0.846007 0.141,-0.317253 0.3525,-0.423004 0.21151,-0.141 0.49351,-0.141 0.49351,0 1.37475,0.599255 0.91652,0.599255 2.32653,1.304261 1.41001,0.705005 3.38403,1.339511 2.00927,0.599255 4.61779,0.599255 1.97401,0 3.59553,-0.528754 1.65677,-0.528754 2.82003,-1.480513 1.19851,-0.987009 1.83301,-2.397021 0.6345,-1.410011 0.6345,-3.207778 0,-1.938766 -0.88125,-3.313528 -0.88126,-1.374763 -2.32652,-2.397022 -1.44526,-1.057507 -3.31352,-1.903517 -1.83302,-0.881257 -3.7718,-1.762515 -1.93875,-0.916506 -3.77178,-2.009266 -1.83301,-1.092759 -3.27827,-2.573273 -1.44527,-1.480513 -2.36178,-3.45453 -0.88125,-2.009267 -0.88125,-4.794042 0,-2.855275 1.02226,-5.076044 1.0575,-2.2560198 2.89052,-3.7717829 1.86826,-1.5157631 4.40628,-2.2912699 2.57328,-0.8107571 5.53431,-0.8107571 1.51576,0 3.03152,0.2820025 1.55101,0.2467522 2.89053,0.7050061 1.37477,0.4230038 2.43226,0.9870087 1.05753,0.5287546 1.37477,0.8812576 0.35251,0.3172528 0.45826,0.5287546 0.10575,0.1762514 0.17625,0.4935043 0.0706,0.2820023 0.10575,0.705006 0.0352,0.4230037 0.0352,1.0927598 0,0.6345053 -0.0706,1.1280089 -0.0352,0.4935048 -0.141,0.8460081 -0.10575,0.3172523 -0.31726,0.4935033 -0.17626,0.141002 -0.423,0.141002 -0.38775,0 -1.23376,-0.493504 -0.81076,-0.4935046 -2.00927,-1.0927596 -1.1985,-0.6345053 -2.85527,-1.1280101 -1.62151,-0.5287545 -3.66603,-0.5287545 -1.90353,0 -3.31354,0.5287545 -1.41001,0.4935048 -2.3265,1.3395118 -0.91652,0.846007 -1.37478,2.0092669 -0.45825,1.163261 -0.45825,2.467522 0,1.903518 0.88125,3.27828 0.88126,1.374762 2.32653,2.43227 1.4805,1.05751 3.34878,1.938768 1.86827,0.881258 3.80704,1.797765 1.93875,0.881258 3.80703,1.974016 1.86826,1.057511 3.31351,2.538023 1.48053,1.445263 2.36178,3.45453 0.91651,1.974017 0.91651,4.688291 z m 24.49896,9.588083 q 0,1.022259 -0.14099,1.621513 -0.141,0.599255 -0.42301,0.881258 -0.282,0.282002 -0.846,0.528755 -0.56401,0.246753 -1.30426,0.387754 -0.705,0.176251 -1.51576,0.282002 -0.81076,0.105748 -1.62152,0.105748 -2.46752,0 -4.23003,-0.634507 -1.76252,-0.669755 -2.89053,-1.974016 -1.12801,-1.339512 -1.65675,-3.348779 -0.49352,-2.044517 -0.49352,-4.794041 V 19.812304 h -4.44153 q -0.52876,0 -0.84602,-0.564005 -0.31726,-0.564005 -0.31726,-1.833017 0,-0.669755 0.0706,-1.128008 0.10575,-0.458256 0.24675,-0.740257 0.14101,-0.317254 0.35251,-0.423004 0.24675,-0.141001 0.52876,-0.141001 h 4.40629 V 7.439445 q 0,-0.2467517 0.10574,-0.4582535 0.141,-0.2115019 0.45826,-0.3525031 0.3525,-0.1762515 0.9165,-0.2467522 0.56401,-0.0705 1.41002,-0.0705 0.88126,0 1.44525,0.0705 0.56402,0.0705 0.88126,0.2467522 0.31725,0.1410012 0.45826,0.3525031 0.141,0.2115018 0.141,0.4582535 v 7.543567 h 8.14281 q 0.28202,0 0.49351,0.141001 0.21151,0.105748 0.3525,0.423004 0.17625,0.282001 0.24675,0.740257 0.0706,0.458253 0.0706,1.128008 0,1.269012 -0.31726,1.833017 -0.31724,0.564005 -0.84601,0.564005 h -8.14281 v 17.695653 q 0,3.278279 0.95175,4.970293 0.98702,1.656765 3.48978,1.656765 0.81076,0 1.44527,-0.141002 0.63451,-0.176251 1.12801,-0.352503 0.4935,-0.176251 0.846,-0.317253 0.35251,-0.176251 0.63452,-0.176251 0.17625,0 0.31724,0.105748 0.17625,0.0705 0.24675,0.317252 0.10575,0.246752 0.17625,0.669756 0.0706,0.423004 0.0706,1.057509 z m 30.70303,2.36177 q 0,0.423003 -0.282,0.634505 -0.282,0.211503 -0.77551,0.317253 -0.4935,0.105749 -1.44526,0.105749 -0.91651,0 -1.48052,-0.105749 -0.52874,-0.105748 -0.7755,-0.317253 -0.24676,-0.211502 -0.24676,-0.634505 v -3.172527 q -2.07976,2.220769 -4.65303,3.454531 -2.53802,1.23376 -5.3933,1.23376 -2.50277,0 -4.54728,-0.669756 -2.00928,-0.634506 -3.45454,-1.868267 -1.41002,-1.23376 -2.22077,-3.031526 -0.7755,-1.797766 -0.7755,-4.089036 0,-2.679023 1.09276,-4.65304 1.09275,-1.974017 3.13728,-3.278278 2.04451,-1.304262 5.00553,-1.938767 2.96103,-0.669755 6.6623,-0.669755 h 4.37105 v -2.467522 q 0,-1.833016 -0.38775,-3.243029 -0.38776,-1.410011 -1.26902,-2.32652 -0.846,-0.951757 -2.22076,-1.410012 -1.37476,-0.493504 -3.38403,-0.493504 -2.15027,0 -3.87754,0.528754 -1.69201,0.493504 -2.99628,1.12801 -1.26901,0.599255 -2.15026,1.12801 -0.846,0.493504 -1.26901,0.493504 -0.282,0 -0.4935,-0.141 -0.21151,-0.141002 -0.38776,-0.423004 -0.141,-0.282003 -0.2115,-0.705007 -0.0706,-0.458253 -0.0706,-0.987009 0,-0.881258 0.10575,-1.374761 0.14101,-0.528755 0.59925,-0.987008 0.49351,-0.458255 1.65677,-1.057511 1.16327,-0.634505 2.67903,-1.128008 1.51576,-0.528755 3.31352,-0.846009 1.79776,-0.352502 3.63079,-0.352502 3.41928,0 5.8163,0.775506 2.39701,0.775507 3.87753,2.291271 1.48051,1.480513 2.15028,3.701281 0.66974,2.22077 0.66974,5.181796 z m -5.78105,-14.487876 h -4.9703 q -2.39701,0 -4.15952,0.423004 -1.76252,0.387753 -2.92578,1.19851 -1.16326,0.775507 -1.72728,1.903517 -0.52874,1.092759 -0.52874,2.538022 0,2.467522 1.55101,3.948034 1.58626,1.445263 4.40629,1.445263 2.29126,0 4.23004,-1.16326 1.97401,-1.16326 4.12428,-3.560281 z m 39.26882,9.623334 q 0,0.599255 -0.0352,1.05751 -0.0352,0.423003 -0.141,0.740255 -0.0706,0.282003 -0.2115,0.528756 -0.10575,0.2115 -0.56401,0.669755 -0.423,0.423004 -1.48052,1.09276 -1.0575,0.634504 -2.39701,1.16326 -1.30427,0.493504 -2.85528,0.810757 -1.551,0.317253 -3.20777,0.317253 -3.41929,0 -6.06306,-1.12801 -2.64377,-1.128011 -4.44154,-3.278279 -1.76251,-2.185519 -2.71427,-5.322796 -0.91651,-3.172527 -0.91651,-7.296814 0,-4.68829 1.12801,-8.037069 1.16327,-3.38403 3.13728,-5.534299 2.00927,-2.150268 4.68829,-3.172527 2.71428,-1.057508 5.85155,-1.057508 1.51576,0 2.92578,0.282002 1.44526,0.282003 2.64376,0.740256 1.19851,0.458253 2.11502,1.057509 0.95176,0.599255 1.37476,1.02226 0.42301,0.423002 0.56402,0.669756 0.17624,0.246751 0.282,0.599254 0.10574,0.317253 0.141,0.740256 0.0352,0.423004 0.0352,1.057509 0,1.374763 -0.31726,1.938768 -0.31725,0.528754 -0.7755,0.528754 -0.52877,0 -1.23377,-0.564005 -0.66975,-0.599255 -1.72727,-1.304261 -1.0575,-0.705006 -2.57327,-1.269011 -1.48051,-0.599255 -3.52502,-0.599255 -4.19479,0 -6.4508,3.243027 -2.22078,3.207778 -2.22078,9.341332 0,3.066777 0.564,5.393297 0.59925,2.291269 1.72726,3.842283 1.12803,1.551013 2.74954,2.32652 1.65677,0.740257 3.77178,0.740257 2.00927,0 3.52504,-0.634506 1.51576,-0.634505 2.60851,-1.374761 1.12801,-0.775507 1.86827,-1.374762 0.7755,-0.634506 1.19851,-0.634506 0.24676,0 0.42301,0.141 0.17624,0.141002 0.28199,0.493506 0.14101,0.317252 0.17624,0.846006 0.0706,0.493505 0.0706,1.198511 z m 33.76982,4.794042 q 0,0.282002 -0.14101,0.493503 -0.14099,0.211502 -0.4935,0.352504 -0.31725,0.141002 -0.91651,0.211502 -0.59926,0.0705 -1.51576,0.0705 -0.95176,0 -1.58627,-0.0705 -0.59925,-0.03525 -1.02226,-0.141001 -0.42299,-0.141001 -0.705,-0.352503 -0.24676,-0.246752 -0.45825,-0.564005 L 454.80212,30.034892 v 17.589904 q 0,0.282002 -0.14101,0.493504 -0.14099,0.17625 -0.45824,0.317252 -0.31726,0.141002 -0.88127,0.211502 -0.564,0.0705 -1.44526,0.0705 -0.84601,0 -1.41,-0.0705 -0.56401,-0.0705 -0.91652,-0.211502 -0.31725,-0.141002 -0.45825,-0.317252 -0.10575,-0.211502 -0.10575,-0.493504 V 0.53038549 q 0,-0.2820025 0.10575,-0.4935043 0.141,-0.2115019 0.45825,-0.352503 0.35251,-0.1410015 0.91652,-0.2115019 0.56399,-0.0705 1.41,-0.0705 0.88126,0 1.44526,0.0705 0.56401,0.070501 0.88127,0.2115019 0.31725,0.1410011 0.45824,0.352503 0.14101,0.2115018 0.14101,0.4935043 V 29.224135 l 11.9851,-13.183615 q 0.282,-0.352502 0.59925,-0.564004 0.31726,-0.246753 0.74027,-0.387754 0.45824,-0.17625 1.0575,-0.211502 0.59926,-0.0705 1.44527,-0.0705 0.88125,0 1.4805,0.0705 0.59926,0.03525 0.95177,0.176253 0.38776,0.105747 0.52875,0.317252 0.17625,0.176252 0.17625,0.493504 0,0.423005 -0.24675,0.846007 -0.21151,0.423004 -0.74026,0.98701 l -11.4916,11.4916 12.90162,16.743894 q 0.45825,0.599255 0.6345,0.987008 0.21151,0.352504 0.21151,0.669757 z"
   id="text17"
   aria-label="BookStack" /></svg>
