<?xml version="1.0" encoding="UTF-8" standalone="no"?>
<!-- Generator: Adobe Illustrator 19.0.0, SVG Export Plug-In . SVG Version: 6.00 Build 0)  -->

<svg
   version="1.1"
   id="Layer_1"
   x="0px"
   y="0px"
   viewBox="0 0 125.05881 81.944384"
   enable-background="new 0 0 196.6 72"
   xml:space="preserve"
   inkscape:version="1.2.2 (b0a8486541, 2022-12-01)"
   sodipodi:docname="Nextcloud_Logo.svg"
   width="133.39606"
   height="87.407349"
   inkscape:export-filename="nextcloud-logo-inverted.png"
   inkscape:export-xdpi="299.75104"
   inkscape:export-ydpi="299.75104"
   xmlns:inkscape="http://www.inkscape.org/namespaces/inkscape"
   xmlns:sodipodi="http://sodipodi.sourceforge.net/DTD/sodipodi-0.dtd"
   xmlns="http://www.w3.org/2000/svg"
   xmlns:svg="http://www.w3.org/2000/svg"
   xmlns:rdf="http://www.w3.org/1999/02/22-rdf-syntax-ns#"
   xmlns:cc="http://creativecommons.org/ns#"
   xmlns:dc="http://purl.org/dc/elements/1.1/"><metadata
     id="metadata20"><rdf:RDF><cc:Work
         rdf:about=""><dc:format>image/svg+xml</dc:format><dc:type
           rdf:resource="http://purl.org/dc/dcmitype/StillImage" /></cc:Work></rdf:RDF></metadata><defs
     id="defs18"><clipPath
       clipPathUnits="userSpaceOnUse"
       id="clipPath8812"><circle
         id="circle8814"
         cx="95.669289"
         cy="95.669296"
         r="79.724197"
         style="fill:#00080d;fill-opacity:1;stroke-width:1" /></clipPath></defs><sodipodi:namedview
     pagecolor="#ffffff"
     bordercolor="#666666"
     borderopacity="1"
     objecttolerance="10"
     gridtolerance="10"
     guidetolerance="10"
     inkscape:pageopacity="0"
     inkscape:pageshadow="2"
     inkscape:window-width="1419"
     inkscape:window-height="1032"
     id="namedview16"
     showgrid="false"
     inkscape:zoom="2.8284271"
     inkscape:cx="63.993164"
     inkscape:cy="28.107495"
     inkscape:current-layer="Layer_1"
     fit-margin-top="10"
     fit-margin-left="10"
     fit-margin-right="10"
     fit-margin-bottom="10"
     inkscape:window-x="280"
     inkscape:window-y="103"
     inkscape:window-maximized="0"
     units="px"
     inkscape:snap-bbox="true"
     inkscape:bbox-paths="true"
     inkscape:bbox-nodes="true"
     inkscape:snap-bbox-edge-midpoints="true"
     inkscape:snap-bbox-midpoints="true"
     inkscape:snap-page="true"
     inkscape:showpageshadow="2"
     inkscape:pagecheckerboard="0"
     inkscape:deskcolor="#d1d1d1" /><path
     inkscape:connector-curvature="0"
     id="path1052"
     d="M 62.624718,0 C 49.661994,0 38.675008,8.7878746 35.269778,20.69445 32.310276,14.379021 25.896934,9.9545327 18.509875,9.9545327 8.3509225,9.9545327 0,18.305458 0,28.464406 c 0,10.158935 8.3509225,18.51367 18.509875,18.51367 7.387059,0 13.800401,-4.427192 16.759904,-10.743728 3.405231,11.90748 14.392215,20.698274 27.354939,20.698274 12.86686,0 23.797822,-8.658211 27.290147,-20.431387 3.014175,6.173141 9.348145,10.476841 16.630275,10.476841 10.15896,0 18.51367,-8.354735 18.51367,-18.51367 0,-10.158948 -8.35471,-18.5098733 -18.51367,-18.5098733 -7.28213,0 -13.6161,4.3010073 -16.630275,10.4730393 C 86.42254,8.6553166 75.491578,0 62.624718,0 Z m 0,10.86573 c 9.785397,0 17.602493,7.813311 17.602493,17.598676 0,9.785348 -7.817096,17.60248 -17.602493,17.60248 -9.785334,0 -17.598648,-7.817132 -17.598648,-17.60248 0,-9.785365 7.813313,-17.598675 17.598648,-17.598676 z m -44.114843,9.954534 c 4.287188,0 7.647942,3.356932 7.647942,7.644142 0,4.287193 -3.360754,7.647941 -7.647942,7.647941 -4.287198,0 -7.644165,-3.360748 -7.644165,-7.647941 0,-4.28721 3.356967,-7.644142 7.644165,-7.644142 z m 88.035265,0 c 4.28723,0 7.64796,3.356932 7.64796,7.644142 0,4.287193 -3.36074,7.647941 -7.64796,7.647941 -4.28717,0 -7.644126,-3.360748 -7.644126,-7.647941 0,-4.28721 3.356976,-7.644142 7.644126,-7.644142 z"
     style="color:#000000;font-style:normal;font-variant:normal;font-weight:normal;font-stretch:normal;font-size:medium;line-height:normal;font-family:sans-serif;text-indent:0;text-align:start;text-decoration:none;text-decoration-line:none;text-decoration-style:solid;text-decoration-color:#000000;letter-spacing:normal;word-spacing:normal;text-transform:none;writing-mode:lr-tb;direction:ltr;baseline-shift:baseline;text-anchor:start;white-space:normal;clip-rule:nonzero;display:inline;overflow:visible;visibility:visible;opacity:1;isolation:auto;mix-blend-mode:normal;color-interpolation:sRGB;color-interpolation-filters:linearRGB;solid-color:#000000;solid-opacity:1;fill:#0082c9;fill-opacity:1;fill-rule:nonzero;stroke:none;stroke-width:6.1116;stroke-linecap:butt;stroke-linejoin:miter;stroke-miterlimit:10;stroke-dasharray:none;stroke-dashoffset:0;stroke-opacity:1;color-rendering:auto;image-rendering:auto;shape-rendering:auto;text-rendering:auto;enable-background:accumulate"
     inkscape:export-filename="Nextcloud Hub logo variants.png"
     inkscape:export-xdpi="300"
     inkscape:export-ydpi="300" /><path
     style="fill:#0082c9;fill-opacity:1;stroke-width:0.516505"
     d="m 13.023582,65.519015 c -0.361543,0 -0.517695,0.206361 -0.517695,0.567955 v 14.980286 c 0,0.361553 0.156152,0.565438 0.517695,0.565438 h 0.414655 c 0.361554,0 0.565427,-0.203885 0.565427,-0.565438 V 68.627667 l 8.177474,12.69091 c 0.03559,0.05546 0.07434,0.09246 0.113088,0.133115 0.01158,0.01373 0.01966,0.02813 0.03272,0.04019 0.03482,0.03174 0.07302,0.04832 0.110516,0.06785 0.02086,0.01096 0.03712,0.02712 0.06039,0.03513 0.01625,0.0055 0.03339,0.0022 0.05029,0.0065 0.05764,0.01483 0.116591,0.03019 0.185966,0.03019 h 0.412141 c 0.361542,0 0.517683,-0.203874 0.517683,-0.565437 v -14.9794 c 0,-0.36159 -0.156141,-0.567953 -0.517683,-0.567953 h -0.412141 c -0.361575,0 -0.567954,0.206363 -0.567954,0.567953 v 12.440136 l -8.177469,-12.6909 c -0.02789,-0.04325 -0.06161,-0.0696 -0.093,-0.103109 -0.09443,-0.133533 -0.243985,-0.213618 -0.45738,-0.213618 z m 98.187408,0.206076 c -0.36155,0 -0.20607,0.206384 -0.20607,0.567955 V 71.4071 c 0,0.516489 0.0501,0.877032 0.0501,0.877032 h -0.0501 c 0,0 -0.98186,-2.271781 -3.71932,-2.271781 -2.9957,0 -5.11438,2.375864 -5.01101,5.888062 0,3.512231 1.91086,5.940878 4.95824,5.940878 2.94406,0 3.9254,-2.377358 3.9254,-2.377358 h 0.0527 c 0,0 -0.10313,0.310561 -0.10313,0.723756 v 0.877051 c 0,0.361544 0.2064,0.517708 0.56798,0.517708 h 0.36187 c 0.36155,0 0.51517,-0.20641 0.51517,-0.567953 V 66.293046 c 0,-0.361571 -0.56828,-0.567955 -0.92983,-0.567955 z m -40.133411,0.05282 c -0.361562,0 -0.1533,0.206406 -0.1533,0.567955 v 12.653215 c 0,2.4792 1.651205,2.789464 2.580918,2.789464 0.413193,0 0.567926,-0.206389 0.567926,-0.567919 V 80.85873 c 0,-0.361542 -0.206665,-0.515179 -0.464905,-0.515179 -0.516526,-0.05161 -1.186163,-0.20739 -1.186163,-1.653592 V 66.345857 c 0,-0.361548 -0.568273,-0.567953 -0.929832,-0.567953 z m -18.541297,1.341986 c -0.361553,0 -0.56795,0.206403 -0.56795,0.567952 v 2.686469 1.291718 5.835267 c 0,2.685809 1.498947,4.184256 3.978158,4.184256 0.464849,0 0.618214,-0.15365 0.618214,-0.515182 v -0.311625 c 0,-0.413184 -0.153365,-0.516345 -0.618214,-0.567952 -0.878053,-0.05161 -2.480379,-0.36139 -2.480379,-2.995568 v -5.68199 h 2.324573 c 0.361551,0 0.56795,-0.153617 0.56795,-0.515182 v -0.155812 c 0,-0.361543 -0.206399,-0.56793 -0.56795,-0.56793 h -2.324573 v -2.686469 c 0,-0.361549 -0.153626,-0.567952 -0.515176,-0.567952 z M 31.96444,70.012445 c -3.099004,0 -5.58018,2.221995 -5.631744,5.940833 0,3.512198 2.583579,5.93833 5.940855,5.93833 1.807743,0 3.149765,-0.774068 3.769575,-1.238937 0.258325,-0.206587 0.310761,-0.465484 0.155808,-0.723743 l -0.155808,-0.256353 c -0.154951,-0.309902 -0.411342,-0.36241 -0.721247,-0.155792 -0.516502,0.413184 -1.551864,1.032866 -2.998072,1.032866 -2.324243,0 -4.338729,-1.653701 -4.390293,-4.546118 h 8.212647 c 0.30992,0 0.56795,-0.258051 0.56795,-0.567964 0,-3.253948 -1.70229,-5.423125 -4.749671,-5.423125 z m 32.089155,0 c -3.357255,0 -5.939552,2.478893 -5.991114,5.991091 0,3.512208 2.583588,5.940853 5.940851,5.940853 2.066019,0 3.460279,-0.982673 4.028421,-1.44753 0.258328,-0.25826 0.308254,-0.464089 0.153307,-0.774012 l -0.153307,-0.206061 c -0.206582,-0.309924 -0.413856,-0.362409 -0.723757,-0.155823 -0.516501,0.464846 -1.600458,1.188689 -3.201627,1.188689 -2.479196,0 -4.443074,-1.860298 -4.443074,-4.546117 0,-2.73745 1.963878,-4.596375 4.443074,-4.596375 1.342919,0 2.323263,0.671313 2.839743,1.032876 0.309914,0.206509 0.567413,0.206849 0.774028,-0.102998 l 0.155812,-0.258832 c 0.258339,-0.309912 0.205472,-0.567438 -0.05282,-0.774013 -0.568153,-0.46488 -1.80685,-1.291719 -3.769576,-1.291719 z m 17.458158,0 c -3.305613,0 -5.991109,2.530796 -5.991109,5.88806 0,3.408894 2.685496,5.991103 5.991109,5.991103 3.305642,0 5.991121,-2.582209 5.991121,-5.991103 0,-3.357264 -2.685479,-5.88806 -5.991121,-5.88806 z M 48.098236,70.18586 c -0.126471,0.0202 -0.248199,0.105311 -0.364394,0.243732 l -2.090859,2.490422 -1.563119,1.864679 -2.369808,-2.822142 -1.28417,-1.532959 c -0.11626,-0.138473 -0.247933,-0.214393 -0.384494,-0.226163 -0.136546,-0.01096 -0.27868,0.03964 -0.417169,0.1558 l -0.316644,0.266365 c -0.276952,0.232424 -0.262445,0.489542 -0.03013,0.766512 l 2.090862,2.490401 1.734003,2.068246 -2.53818,3.023204 c -0.0026,0.0021 -0.0038,0.0055 -0.0051,0.0065 l -1.281655,1.525439 c -0.232404,0.27696 -0.206578,0.569249 0.07037,0.801673 l 0.316642,0.263859 c 0.276969,0.23239 0.529052,0.173942 0.761456,-0.103108 l 2.088347,-2.490432 1.565629,-1.86468 2.369808,2.824656 c 0.0011,0.0021 0.0038,0.0044 0.0051,0.0055 l 1.279145,1.527931 c 0.232403,0.276959 0.524683,0.300173 0.801662,0.06775 l 0.316644,-0.263861 c 0.276967,-0.2324 0.26258,-0.48952 0.03016,-0.766491 l -2.090855,-2.492936 -1.734009,-2.065742 2.538183,-3.025709 c 0.0026,-0.0022 0.0038,-0.0044 0.0051,-0.0065 l 1.281654,-1.525416 c 0.232401,-0.276971 0.206578,-0.56927 -0.07036,-0.801672 l -0.316646,-0.26386 C 48.356933,70.210612 48.224843,70.16594 48.098348,70.186142 Z m 42.452975,0.08553 c -0.361565,0 -0.517706,0.206389 -0.517706,0.567943 v 6.662085 c 0,2.944078 2.169409,4.390304 4.855218,4.390304 2.685818,0 4.85522,-1.446226 4.85522,-4.390304 v -6.662096 c 0.05163,-0.361543 -0.153628,-0.567942 -0.515176,-0.567942 h -0.41465 c -0.361557,0 -0.567957,0.206399 -0.567957,0.567942 v 6.249955 c 0,1.756114 -1.136476,3.357449 -3.357437,3.357449 -2.1693,0 -3.357418,-1.601335 -3.357418,-3.357449 v -6.249955 c 0,-0.361543 -0.2064,-0.567942 -0.567974,-0.567942 z m -58.639544,1.032855 c 1.652807,0 3.098256,1.187592 3.201631,3.563498 h -7.127012 c 0.361553,-2.324277 2.014333,-3.563498 3.925381,-3.563498 z m 49.600086,0.103108 c 2.427568,0 4.390317,1.910852 4.390317,4.493356 0,2.685796 -1.962749,4.649136 -4.390317,4.649136 -2.427539,0 -4.391508,-2.014969 -4.443058,-4.649136 0,-2.530864 2.015519,-4.493356 4.443058,-4.493356 z m 25.876877,0 c 2.42757,0 3.61629,2.221851 3.61629,4.546128 0,3.253948 -1.75798,4.596364 -3.66905,4.596364 -2.11765,0 -3.56221,-1.807274 -3.61375,-4.596364 0,-2.892417 1.65217,-4.546128 3.66651,-4.546128 z"
     id="path1174"
     inkscape:connector-curvature="0" /></svg>
